<svg id="OBJECTS" xmlns="http://www.w3.org/2000/svg" viewBox="0 0 1679.59 1273.77"><defs><style>.cls-1{opacity:0.25;}.cls-2{fill:#bfa564;}.cls-3{fill:#ffae01;}.cls-4{fill:#fff;}.cls-5{fill:#013d55;}.cls-6{fill:#4dd0ff;}.cls-7{fill:#008dc0;}.cls-8{fill:#36295b;}.cls-15,.cls-9{fill:#ff9498;}.cls-10{fill:#f5cc00;}.cls-11{fill:#404add;}.cls-12{fill:#ffba9a;}.cls-13{fill:#bf643a;}.cls-14{fill:#c2afea;}.cls-15{opacity:0.4;}.cls-16,.cls-17{fill:#7252b7;}.cls-17{opacity:0.5;}</style></defs><title>multi</title><g class="cls-1"><path class="cls-2" d="M675.35,1519.16c-131.66-26.49-262-119.58-278-274.68-6.52-63,4.42-132,45.85-176.87,48.46-52.48,125.85-59.16,193.74-46.4s133,41.52,201.63,48.39c166.47,16.68,321-96.27,487.61-109.61,82.71-6.63,175.4,18,221.52,92.36,41.59,67.11,33.66,159.8-4.4,229s-101.41,118-167.64,155.22c-121.35,68.12-256.43,102.33-393,107.9C878,1548.71,776.52,1539.51,675.35,1519.16Z" transform="translate(-169.95 -392)"/></g><polygon class="cls-3" points="1416.5 878.65 1375.3 807.3 1457.69 807.3 1416.5 878.65"/><path class="cls-3" d="M1494.79,1181.51a32,32,0,0,0,32,32h290.7a32,32,0,0,0,32-32v-175.9H1494.79Z" transform="translate(-169.95 -392)"/><path class="cls-4" d="M1817.52,934.79h-290.7a32,32,0,0,0-32,32v38.8h354.75v-38.8A32,32,0,0,0,1817.52,934.79Z" transform="translate(-169.95 -392)"/><path class="cls-5" d="M1794.15,988.42a18.22,18.22,0,1,1,18.22-18.22A18.24,18.24,0,0,1,1794.15,988.42Zm0-32.69a14.47,14.47,0,1,0,14.47,14.47A14.48,14.48,0,0,0,1794.15,955.73Z" transform="translate(-169.95 -392)"/><rect class="cls-6" x="1459.79" y="648.01" width="51.96" height="13.83"/><rect class="cls-6" x="1459.79" y="674.23" width="76.82" height="13.83"/><rect class="cls-6" x="1459.79" y="700.46" width="185.48" height="13.83"/><rect class="cls-6" x="1459.79" y="726.68" width="109.73" height="13.83"/><rect class="cls-6" x="1583.27" y="752.9" width="51.96" height="13.83"/><rect class="cls-7" x="1359.17" y="638.62" width="61.88" height="39.54"/><rect class="cls-7" x="1359.17" y="696.12" width="61.88" height="69.71"/><circle class="cls-3" cx="283.85" cy="147.08" r="136.99"/><polygon class="cls-8" points="283.06 149.15 223.81 70.38 226.8 68.13 284.65 145.01 362.92 129.67 363.64 133.35 283.06 149.15"/><path class="cls-8" d="M1588.42,738.43a131.82,131.82,0,0,1-20.53-1.89l.43-2.46a129.12,129.12,0,0,0,20.13,1.85Zm20.56-1.36-.35-2.47a131.22,131.22,0,0,0,19.72-4.43l.74,2.38A131.27,131.27,0,0,1,1609,737.07Zm-61.06-5.62a132.22,132.22,0,0,1-18.91-8.17l1.16-2.21a129.39,129.39,0,0,0,18.56,8Zm100.32-6.51-1.1-2.24a128.41,128.41,0,0,0,17.38-10.34l1.44,2A130.12,130.12,0,0,1,1648.24,724.94Zm-136.65-12.68a131.69,131.69,0,0,1-15.49-13.6l1.79-1.74a129.36,129.36,0,0,0,15.2,13.34Zm170.22-11-1.74-1.79a130.3,130.3,0,0,0,13.33-15.21l2,1.5A132.63,132.63,0,0,1,1681.81,701.21Zm-198.89-18.4a130.36,130.36,0,0,1-10.53-17.73l2.24-1.1A128.54,128.54,0,0,0,1485,681.36Zm223.48-14.53-2.21-1.16a130.1,130.1,0,0,0,8-18.57l2.37.81A132.28,132.28,0,0,1,1706.4,668.28Zm-241.61-22.36a132.44,132.44,0,0,1-4.51-20.11l2.48-.35a130.38,130.38,0,0,0,4.42,19.73Zm254.85-16.53-2.47-.42a128.14,128.14,0,0,0,1.84-20.14l2.5,0A130.59,130.59,0,0,1,1719.64,629.39Zm-258.2-24.11-2.5,0a133,133,0,0,1,1.9-20.52l2.47.42A128.17,128.17,0,0,0,1461.44,605.28Zm256.22-16.63a130.3,130.3,0,0,0-4.44-19.72l2.39-.74a132.9,132.9,0,0,1,4.53,20.1Zm-249.34-23.08-2.37-.82a132.76,132.76,0,0,1,8.18-18.91l2.21,1.17A129,129,0,0,0,1468.32,565.57Zm237.41-15.42a128.68,128.68,0,0,0-10.35-17.38l2-1.44A131.37,131.37,0,0,1,1708,549Zm-218.56-20.22-2-1.5A131.68,131.68,0,0,1,1498.78,513l1.74,1.79A130,130,0,0,0,1487.17,529.93Zm195.26-12.69a131,131,0,0,0-15.21-13.32l1.49-2a132.56,132.56,0,0,1,15.51,13.57Zm-166.35-15.41-1.44-2.05a130.76,130.76,0,0,1,17.74-10.51l1.09,2.24A127,127,0,0,0,1516.08,501.83Zm134-8.69a128.92,128.92,0,0,0-18.57-8l.8-2.37a131.81,131.81,0,0,1,18.93,8.14Zm-97.85-9.07-.73-2.39a133.88,133.88,0,0,1,20.11-4.49l.35,2.48A130.33,130.33,0,0,0,1552.27,484.07Zm59.69-3.89a129.43,129.43,0,0,0-20.14-1.82l0-2.5a130.8,130.8,0,0,1,20.53,1.86Z" transform="translate(-169.95 -392)"/><path class="cls-9" d="M1458.82,428.71a145.46,145.46,0,0,0-30.75,38.59,143.69,143.69,0,0,0-17.82,66.51c-1,49.3,22.94,97.94,66.85,126a145.37,145.37,0,0,0,205.49-51.95c36.92-66.44,15.7-151.32-48.15-192.55a146.67,146.67,0,0,0-18.26-10.07,145.72,145.72,0,0,0-157.36,23.48Z" transform="translate(-169.95 -392)"/><path class="cls-4" d="M1458.82,428.71a145.46,145.46,0,0,0-30.75,38.59,143.69,143.69,0,0,0-17.82,66.51L1569.91,535l46.27-129.81a145.72,145.72,0,0,0-157.36,23.48Z" transform="translate(-169.95 -392)"/><path class="cls-8" d="M919.75,658.39l-2.4-1.8a144.41,144.41,0,0,0,26-58.41c.18-.92.35-1.87.51-2.82a19.64,19.64,0,0,1-10.15-14.65c-.68-4.81.55-8.85,3.15-10.29,1.16-.65,3.62-1.3,7,1.55,4.62,3.88,4.39,13.73,3.3,21.56.57.19,1.16.36,1.77.5,6.36,1.45,13.25.06,19.38-3.93A28.62,28.62,0,0,0,982,564.24a75.85,75.85,0,0,1-21-3.74c-7.63-2.41-20.19-12.57-21.24-21.13-.73-5.92,1.75-8.88,3.95-10.32,5.45-3.56,14.84-1.65,20.91,2a42.23,42.23,0,0,1,20.13,30.21c7.18-.33,14.08-2.53,18.71-8.31s6-14.38,3.93-25.41a54.26,54.26,0,0,1-8-1A114.52,114.52,0,0,1,937.37,491c-4.09-4.56-16.86-20.53-9.37-34.46,5.41-10.06,18.46-12.45,28-9.61,10.68,3.19,18.55,11.51,24.22,18.4a149.88,149.88,0,0,1,28.58,55.14c.38,1.39.72,2.75,1,4.08h.1c10.47,0,21.79-3.25,24.69-13.3,2.44-8.49-2.87-17.39-7.78-24.2a225.38,225.38,0,0,0-66.35-61L962,423.4a228.53,228.53,0,0,1,67.24,61.86c5.3,7.36,11,17.05,8.22,26.78-3.06,10.63-14.61,15.39-27.06,15.51,2.05,11.64.5,20.78-4.65,27.22s-12.91,9-20.8,9.42a31.51,31.51,0,0,1-15,28.43c-6.83,4.43-14.53,6-21.69,4.34-.54-.13-1.06-.27-1.57-.43-.13.78-.27,1.53-.41,2.23A147.33,147.33,0,0,1,919.75,658.39Zm19.35-85.53a1.55,1.55,0,0,0-.76.18c-1.22.68-2.18,3.39-1.63,7.25a16.5,16.5,0,0,0,7.63,11.91c.95-7.74.7-15.35-2.37-17.93A5.24,5.24,0,0,0,939.1,572.86ZM951,530.17a10.41,10.41,0,0,0-5.69,1.4c-2.17,1.41-3,3.91-2.62,7.43.86,7,12.56,16.55,19.18,18.64a73.19,73.19,0,0,0,19.83,3.61A39.15,39.15,0,0,0,963,533.58,25.25,25.25,0,0,0,951,530.17Zm-2.72-81.38c-7,0-14.27,2.9-17.63,9.14-6.56,12.2,5.2,26.83,9,31a111.45,111.45,0,0,0,60.3,34.57,48.78,48.78,0,0,0,6.79.89c-.24-1-.51-2.11-.81-3.2a146.84,146.84,0,0,0-28-54c-5.39-6.56-12.86-14.47-22.76-17.43A23.83,23.83,0,0,0,948.27,448.79Z" transform="translate(-169.95 -392)"/><path class="cls-10" d="M612.07,804.77c5.83-.1,11.65,0,17.47,0s11.64.11,17.46.2c11.64.22,23.27.58,34.9,1l4.92.18L684.93,811l-7.83,20-8,20-2.62-5q16.2,3.1,32.38,6.48c5.38,1.17,10.77,2.28,16.14,3.55s10.75,2.43,16.1,3.79l-.47,2.89c-5.48-.58-10.93-1.34-16.38-2s-10.9-1.5-16.35-2.27q-16.32-2.45-32.59-5.19l-4.31-.73,1.68-4.28,7.85-20,8-20,3,5c-11.61-.69-23.23-1.44-34.83-2.33-5.81-.47-11.61-.9-17.41-1.47s-11.6-1-17.39-1.7Z" transform="translate(-169.95 -392)"/><path class="cls-10" d="M669.52,684.62c5.13,2.9,10.18,5.94,15.26,8.94s10.11,6.07,15.15,9.13q15.08,9.25,30,18.79l4.22,2.68-3.91,3.26L714.1,740.9l-16.25,13.32,0-5.72q12.71,11,25.26,22.27c4.15,3.79,8.34,7.53,12.44,11.39s8.25,7.64,12.29,11.57L746.13,796c-4.51-3.32-8.92-6.78-13.36-10.19s-8.81-6.92-13.21-10.38q-13.11-10.5-26-21.26l-3.42-2.84,3.46-2.88L709.7,735,726,721.71l.32,5.94q-14.73-9.84-29.33-19.91c-4.85-3.39-9.71-6.75-14.51-10.22s-9.64-6.85-14.39-10.41Z" transform="translate(-169.95 -392)"/><path class="cls-10" d="M1304.52,807.83c-5.78.66-11.57,1.15-17.36,1.69s-11.57,1-17.36,1.47c-11.58.89-23.16,1.64-34.75,2.32l3-5,8,19.91,7.83,20,1.68,4.28-4.3.72c-10.82,1.81-21.65,3.56-32.51,5.18-5.43.77-10.86,1.6-16.31,2.27s-10.88,1.46-16.35,2l-.46-2.89c5.33-1.36,10.7-2.54,16.06-3.78s10.73-2.38,16.1-3.55c10.75-2.26,21.52-4.39,32.31-6.46l-2.62,5-8-19.92-7.81-20-1.89-4.84,4.92-.18c11.59-.42,23.2-.78,34.81-1,5.8-.09,11.6-.21,17.41-.19s11.62-.08,17.43,0Z" transform="translate(-169.95 -392)"/><path class="cls-10" d="M1248.55,687.53c-4.74,3.54-9.56,6.94-14.36,10.38s-9.64,6.82-14.47,10.19q-14.55,10.08-29.26,19.87l.31-5.93L1207,735.31l16.11,13.43,3.45,2.87-3.41,2.83q-12.92,10.71-26,21.21c-4.39,3.46-8.74,7-13.18,10.35s-8.82,6.86-13.32,10.17l-1.75-2.28c4-3.92,8.16-7.71,12.26-11.54s8.27-7.59,12.41-11.36q12.51-11.24,25.2-22.22l0,5.7-16.21-13.29-16.1-13.44-3.89-3.25,4.21-2.68q14.89-9.48,29.92-18.74c5-3.06,10-6.14,15.11-9.11s10.1-6,15.22-8.92Z" transform="translate(-169.95 -392)"/><path class="cls-11" d="M1311.06,1663.5H682.71l65-463.33,264.17-107.92c2,0,39.9,6,85.13,13.33a427.1,427.1,0,0,1,278,170.84c66.2,91.41,128.6,205.85,96.48,281.31Z" transform="translate(-169.95 -392)"/><path class="cls-4" d="M792.19,1209h33.62a63,63,0,0,1,63,63v0a0,0,0,0,1,0,0H729.21a0,0,0,0,1,0,0v0a63,63,0,0,1,63-63Z"/><rect class="cls-8" x="949.73" y="1630.53" width="73.37" height="5" transform="translate(-1091.31 1226.22) rotate(-58.42)"/><path class="cls-12" d="M879.69,1518c-26.28,30.63-37.51,64.94-33.26,103,24.05-7.63,45.46-13.48,62.33-14.42,100.62-5.63,114.44,29.75,124.37,8.12C1049.62,1578.86,1015.14,1529.67,879.69,1518Z" transform="translate(-169.95 -392)"/><path class="cls-11" d="M879.69,1518c-39.08-3.36-86.54-3.62-143.64.49l48.33-161.25,153.75-262.5-56.1,11c-89.25,17.56-170.09,65.79-225.75,137.74a382,382,0,0,0-40.23,64.33c-60.78,122.82-85,271.33-45,317.31,65.38,75.18,187.84,23.68,275.38-4.12C842.18,1583,853.41,1548.64,879.69,1518Z" transform="translate(-169.95 -392)"/><path class="cls-8" d="M695,1664.75c25.75-2.23,51.21-6.48,76-13.8,25.35-7.49,49.8-17.69,74.13-27.92,1.46-.62.82-3-.66-2.41-23.76,10-47.62,20-72.34,27.38-25.16,7.57-51,12-77.15,14.25-1.59.14-1.61,2.64,0,2.5Z" transform="translate(-169.95 -392)"/><path class="cls-8" d="M732.46,1519.4a650.67,650.67,0,0,1,137.48.83c1.6.18,1.59-2.32,0-2.5a650.67,650.67,0,0,0-137.48-.83c-1.58.16-1.6,2.66,0,2.5Z" transform="translate(-169.95 -392)"/><path class="cls-8" d="M732.2,1516.07A526,526,0,0,1,816,1310.34c.91-1.33-1.26-2.59-2.16-1.26a527.67,527.67,0,0,0-84.07,206.33c-.28,1.57,2.13,2.25,2.41.66Z" transform="translate(-169.95 -392)"/><path class="cls-8" d="M839.41,1533.2A131.81,131.81,0,0,0,817,1608.5a1.25,1.25,0,0,0,2.5,0,129.4,129.4,0,0,1,22.12-74c.9-1.34-1.27-2.59-2.16-1.27Z" transform="translate(-169.95 -392)"/><path class="cls-13" d="M1023.72,1620.46l-2.44-.58,1.22.29-1.22-.26s.3-1.78-1.59-4.54c-3.73-5.43-16.69-15.76-61.58-24l.45-2.46c44,8,58.76,18.21,63.4,25.33C1024.26,1617.79,1023.78,1620.19,1023.72,1620.46Z" transform="translate(-169.95 -392)"/><path class="cls-13" d="M1033.84,1611.46c-.11-.27-11.48-27-72.76-35.47l.34-2.48c62.92,8.75,74.29,35.88,74.74,37Z" transform="translate(-169.95 -392)"/><path class="cls-13" d="M1036.35,1597.31c0-.08-3.42-8-13.86-16.77-9.65-8.07-27.49-18.44-57.64-22l.3-2.48c59.22,7.09,72.95,39,73.51,40.35Z" transform="translate(-169.95 -392)"/><polygon class="cls-8" points="614.89 966.42 613.97 964.09 723.45 920.97 802.5 961.74 889.19 909.23 975.65 957.08 974.44 959.27 889.24 912.12 802.6 964.6 723.31 923.71 614.89 966.42"/><polygon class="cls-14" points="959.27 984.45 841.79 982.38 875.57 779.89 993.04 781.97 959.27 984.45"/><polygon class="cls-8" points="957.24 829.69 901.02 828.7 905.4 807.2 961.63 808.19 957.24 829.69"/><path class="cls-12" d="M1158.84,1422.51s-31-55.75-46.86-65.7c-12.46-7.82-38.58-4.25-58.29-28-9-10.85-8.5-23.79-4.58-28.74,9-11.3,15.69-13.26,86.08-9.58,0,0-10.16-62,2.64-59.07,10.11,2.3,22.22,41,28.22,49.46,31.58,44.79,64.93,84.94,64.93,84.94l10.6,75.91Z" transform="translate(-169.95 -392)"/><path class="cls-11" d="M1477,1560.18a97,97,0,0,1-19.49,29.59c-114.78,120.1-243.41,48.62-312.43-188.68,46.66-1.8,68.33-8.37,86.15-36.29l132.17,101.49C1367.4,1466.28,1432,1521.39,1477,1560.18Z" transform="translate(-169.95 -392)"/><path class="cls-8" d="M1145.07,1401c23,64.72,48.36,130.27,87.8,187a320.56,320.56,0,0,0,35.27,42.79,1.25,1.25,0,0,0,1.77-1.77c-48.21-48.65-78.2-113.33-103-176.29-6.82-17.33-13.23-34.83-19.47-52.38-.53-1.51-3-.86-2.41.66Z" transform="translate(-169.95 -392)"/><path class="cls-8" d="M1232.47,1369.11l93.58,77.71c1.23,1,3-.74,1.77-1.77l-93.58-77.71c-1.23-1-3,.74-1.77,1.77Z" transform="translate(-169.95 -392)"/><path class="cls-8" d="M1178.41,1421.86a88.07,88.07,0,0,0,63.86-26.28c1.13-1.15-.64-2.92-1.77-1.77a85.52,85.52,0,0,1-62.09,25.55,1.25,1.25,0,0,0,0,2.5Z" transform="translate(-169.95 -392)"/><path class="cls-13" d="M1112.09,1309a255.61,255.61,0,0,1-63.29-7.71l.62-2.42a256.36,256.36,0,0,0,71.55,7.49l.07,2.5C1118.05,1309,1115.06,1309,1112.09,1309Z" transform="translate(-169.95 -392)"/><path class="cls-13" d="M1116.41,1325.76c-21,0-46.43-4-70.33-11.1l.72-2.4c24.49,7.27,50.64,11.26,71.74,11l0,2.5Z" transform="translate(-169.95 -392)"/><path class="cls-13" d="M1111.61,1342.51c-19,0-41.49-6.4-58.2-11.15l.5-2.46.18,0c17.65,5,41.82,11.88,61.12,11l.12,2.49Q1113.5,1342.51,1111.61,1342.51Z" transform="translate(-169.95 -392)"/><path class="cls-8" d="M915.21,1171.55a82.17,82.17,0,0,0,110,.56c1.2-1.07-.57-2.83-1.77-1.76a79.61,79.61,0,0,1-106.44-.57c-1.19-1.08-3,.68-1.77,1.77Z" transform="translate(-169.95 -392)"/><path class="cls-8" d="M1271.08,1398.7c-19-35.2-39.18-69.85-56.67-105.83-.7-1.45-2.86-.18-2.16,1.26,17.49,36,37.7,70.63,56.67,105.83.76,1.42,2.92.16,2.16-1.26Z" transform="translate(-169.95 -392)"/><path class="cls-12" d="M1036.92,1006v86.32a62.42,62.42,0,0,1-62.42,62.43H960.13a62.4,62.4,0,0,1-62.4-62.43V1006Z" transform="translate(-169.95 -392)"/><path class="cls-8" d="M1036.92,1006v20.35l-.25.47c-31.65,72.7-94.85,75-138.94,3.56V1006Z" transform="translate(-169.95 -392)"/><path class="cls-12" d="M1075.39,913.06c-1.63,84.82-48.39,148.11-108.08,148.11s-107.93-55.79-108.07-148.11c-.1-64.76,48.39-117.26,108.07-117.26S1076.63,848.31,1075.39,913.06Z" transform="translate(-169.95 -392)"/><path class="cls-8" d="M851.88,943.5c-13.12-37.5-27.77-132.48,10-181.25,29.38-31.87,117.5-54.37,199.38-21.87l-25.63,7.5c73.75,22.5,59.1,109.57,46.25,190l-21.25-3.75c-5.37-36.59-11.67-73.4-39.37-104.38-28.75-11.87-66.88-10-100-2.5-31.24,22.31-48.75,70-50,103.13Z" transform="translate(-169.95 -392)"/><circle class="cls-12" cx="687.76" cy="546.5" r="30"/><circle class="cls-12" cx="906.93" cy="546.5" r="30"/><path class="cls-8" d="M865.22,943.21a26.94,26.94,0,0,0-26.55-13.37c-1.57.18-1.59,2.68,0,2.5a24.54,24.54,0,0,1,24.4,12.14,1.25,1.25,0,0,0,2.15-1.27Z" transform="translate(-169.95 -392)"/><path class="cls-8" d="M1068.24,940.9a22,22,0,0,1,18.62-14.77c1.59-.15,1.61-2.65,0-2.5a24.58,24.58,0,0,0-21,16.61c-.52,1.52,1.89,2.18,2.41.66Z" transform="translate(-169.95 -392)"/><ellipse class="cls-8" cx="767.23" cy="526.88" rx="9.06" ry="10.57"/><ellipse class="cls-8" cx="823.8" cy="526.88" rx="9.06" ry="10.57"/><path class="cls-8" d="M951.17,883.88c1.16,2.93-8.8,5-18.66,8.1s-20.21,4.13-20.93,1,13.11-11,21.69-13S948.87,878.08,951.17,883.88Z" transform="translate(-169.95 -392)"/><path class="cls-8" d="M978.25,887.24c-.48,3.12,9.68,2.88,20,3.7s20.62-.52,20.62-3.7-15.26-7.8-24.06-7.8S979.18,881.08,978.25,887.24Z" transform="translate(-169.95 -392)"/><ellipse class="cls-13" cx="797.55" cy="548.69" rx="6.25" ry="21.72"/><path class="cls-4" d="M996,979.88c-18.93-13.18-33.25-10.71-52,3.61-7.82,6-2.88,20.72,6.6,18.07.85-.24,1.72-.52,2.63-.86,15.46-5.69,25.76-7.5,36.7-2.78a8.92,8.92,0,0,0,7,.35C1003.82,995.61,1004,985.44,996,979.88Z" transform="translate(-169.95 -392)"/><circle class="cls-15" cx="1022.5" cy="952.67" r="22.08" transform="translate(-480.6 141.38) rotate(-25.52)"/><circle class="cls-15" cx="917.5" cy="957.67" r="22.08" transform="translate(-485.51 77.32) rotate(-24.62)"/><path class="cls-2" d="M1763.33,1413.71a18.23,18.23,0,1,1,18.23-18.23A18.24,18.24,0,0,1,1763.33,1413.71Zm0-32.7a14.48,14.48,0,1,0,14.48,14.47A14.48,14.48,0,0,0,1763.33,1381Z" transform="translate(-169.95 -392)"/><path class="cls-2" d="M355,1480.38a18.23,18.23,0,1,1,18.22-18.23A18.24,18.24,0,0,1,355,1480.38Zm0-32.7a14.48,14.48,0,1,0,14.47,14.47A14.48,14.48,0,0,0,355,1447.68Z" transform="translate(-169.95 -392)"/><path class="cls-2" d="M743.65,531.72a18.22,18.22,0,1,1,18.23-18.22A18.24,18.24,0,0,1,743.65,531.72Zm0-32.69a14.47,14.47,0,1,0,14.48,14.47A14.48,14.48,0,0,0,743.65,499Z" transform="translate(-169.95 -392)"/><path class="cls-2" d="M1250,568.07a18.22,18.22,0,1,1,18.22-18.22A18.24,18.24,0,0,1,1250,568.07Zm0-32.69a14.47,14.47,0,1,0,14.47,14.47A14.48,14.48,0,0,0,1250,535.38Z" transform="translate(-169.95 -392)"/><polygon class="cls-8" points="353.8 807.4 342.33 807.4 342.33 804.9 351.3 804.9 351.3 795.93 353.8 795.93 353.8 807.4"/><path class="cls-8" d="M491.34,1199.4H470.39v-2.5h20.95Zm-41.89,0H428.51v-2.5h20.94Zm-41.88,0H386.62v-2.5h20.95Zm-41.89,0H344.74v-2.5h20.94Z" transform="translate(-169.95 -392)"/><polygon class="cls-8" points="153.84 807.4 142.37 807.4 142.37 795.93 144.87 795.93 144.87 804.9 153.84 804.9 153.84 807.4"/><path class="cls-8" d="M314.82,1166.11h-2.5V1144.3h2.5Zm0-43.63h-2.5v-21.81h2.5Zm0-43.62h-2.5V1057h2.5Zm0-43.63h-2.5v-21.81h2.5Z" transform="translate(-169.95 -392)"/><polygon class="cls-8" points="144.87 599.61 142.37 599.61 142.37 588.13 153.84 588.13 153.84 590.63 144.87 590.63 144.87 599.61"/><path class="cls-8" d="M491.34,982.63H470.39v-2.5h20.95Zm-41.89,0H428.51v-2.5h20.94Zm-41.88,0H386.62v-2.5h20.95Zm-41.89,0H344.74v-2.5h20.94Z" transform="translate(-169.95 -392)"/><polygon class="cls-8" points="353.8 599.61 351.3 599.61 351.3 590.63 342.33 590.63 342.33 588.13 353.8 588.13 353.8 599.61"/><path class="cls-8" d="M523.75,1166.11h-2.5V1144.3h2.5Zm0-43.63h-2.5v-21.81h2.5Zm0-43.62h-2.5V1057h2.5Zm0-43.63h-2.5v-21.82h2.5Z" transform="translate(-169.95 -392)"/><rect class="cls-14" y="499.02" width="303.78" height="397.5"/><rect class="cls-8" x="73.14" y="527.35" width="157.5" height="21.67"/><rect class="cls-4" x="25.78" y="582.7" width="28.83" height="28.83"/><rect class="cls-4" x="25.78" y="646.66" width="28.83" height="28.83"/><rect class="cls-4" x="25.78" y="710.61" width="28.83" height="28.83"/><rect class="cls-4" x="25.78" y="774.57" width="28.83" height="28.83"/><rect class="cls-4" x="25.78" y="838.53" width="28.83" height="28.83"/><rect class="cls-16" x="85.64" y="582.7" width="192.36" height="9.06"/><rect class="cls-17" x="85.64" y="600.44" width="130.24" height="9.06"/><rect class="cls-16" x="85.64" y="647.12" width="159.98" height="9.06"/><rect class="cls-17" x="85.64" y="664.85" width="65.1" height="9.06"/><rect class="cls-16" x="85.64" y="711.07" width="192.36" height="9.06"/><rect class="cls-17" x="85.64" y="728.81" width="160.99" height="9.06"/><rect class="cls-16" x="85.64" y="775.03" width="145.78" height="9.06"/><rect class="cls-17" x="85.64" y="792.76" width="97.86" height="9.06"/><rect class="cls-16" x="85.64" y="838.98" width="174.56" height="9.06"/><rect class="cls-17" x="85.64" y="856.72" width="145.91" height="9.06"/><path class="cls-16" d="M200.56,991l6.22,7.41c1.16,1.38,3.39.81,4.24-.55A164.81,164.81,0,0,1,229.19,974c2.35-2.56-1.46-6.39-3.82-3.82a172.23,172.23,0,0,0-19,24.92l4.25-.54-6.22-7.41c-2.23-2.67-6,1.17-3.82,3.82Z" transform="translate(-169.95 -392)"/><path class="cls-16" d="M198.84,1047.35l19.24,14.89c2.71,2.11,6.57-1.69,3.82-3.82l-19.24-14.89c-2.72-2.1-6.57,1.7-3.82,3.82Z" transform="translate(-169.95 -392)"/><path class="cls-16" d="M203.87,1062.46a168.43,168.43,0,0,1,17.42-16.36c2.7-2.19-1.15-6-3.82-3.82A167.45,167.45,0,0,0,200,1058.64c-2.35,2.55,1.46,6.38,3.83,3.82Z" transform="translate(-169.95 -392)"/><rect class="cls-8" x="941.1" y="1242.38" width="160" height="29.52"/><polygon class="cls-4" points="1310.98 1271.93 1012.87 1271.93 1139.44 993.17 1437.55 993.17 1310.98 1271.93"/><path class="cls-8" d="M1408,1545.38h-44.68l18.92-41.67H1427Zm-38.86-3.75h36.44l15.52-34.17H1384.7Z" transform="translate(-169.95 -392)"/><rect class="cls-8" x="251.55" y="1270.02" width="1214.94" height="3.75"/></svg>