<svg id="Layer_1" data-name="Layer 1" xmlns="http://www.w3.org/2000/svg" viewBox="0 0 266.71 293.48"><defs><style>.cls-1{fill:#ffae01;}.cls-2{fill:#fff;}.cls-3{fill:#ff6d00;}.cls-4{fill:#ff827c;}.cls-5{fill:#404add;}.cls-6{fill:#6893e6;}.cls-7{fill:#0d005a;}.cls-8{fill:#e43d4e;}</style></defs><title>sitting</title><rect class="cls-1" x="136.27" y="273.24" width="122.81" height="15.48"/><path class="cls-2" d="M234.89,362.36a.32.32,0,0,1-.32-.32v-8a.32.32,0,0,1,.64,0v8A.32.32,0,0,1,234.89,362.36Z" transform="translate(-90.99 -77.08)"/><path class="cls-2" d="M243.14,362.36a.31.31,0,0,1-.31-.32v-8a.32.32,0,0,1,.63,0v8A.32.32,0,0,1,243.14,362.36Z" transform="translate(-90.99 -77.08)"/><path class="cls-2" d="M251.4,362.36a.32.32,0,0,1-.32-.32v-8a.32.32,0,0,1,.63,0v8A.31.31,0,0,1,251.4,362.36Z" transform="translate(-90.99 -77.08)"/><path class="cls-2" d="M259.65,362.36a.31.31,0,0,1-.31-.32v-8a.32.32,0,0,1,.63,0v8A.32.32,0,0,1,259.65,362.36Z" transform="translate(-90.99 -77.08)"/><path class="cls-2" d="M267.91,362.36a.32.32,0,0,1-.32-.32v-8a.32.32,0,0,1,.63,0v8A.31.31,0,0,1,267.91,362.36Z" transform="translate(-90.99 -77.08)"/><path class="cls-2" d="M276.16,362.36a.31.31,0,0,1-.31-.32v-8a.32.32,0,0,1,.63,0v8A.32.32,0,0,1,276.16,362.36Z" transform="translate(-90.99 -77.08)"/><path class="cls-2" d="M284.42,362.36a.32.32,0,0,1-.32-.32v-8a.32.32,0,0,1,.63,0v8A.31.31,0,0,1,284.42,362.36Z" transform="translate(-90.99 -77.08)"/><path class="cls-2" d="M292.67,362.36a.32.32,0,0,1-.32-.32v-8a.32.32,0,0,1,.32-.31.31.31,0,0,1,.32.31v8A.32.32,0,0,1,292.67,362.36Z" transform="translate(-90.99 -77.08)"/><path class="cls-2" d="M300.93,362.36a.32.32,0,0,1-.32-.32v-8a.32.32,0,0,1,.63,0v8A.31.31,0,0,1,300.93,362.36Z" transform="translate(-90.99 -77.08)"/><path class="cls-2" d="M309.18,362.36a.32.32,0,0,1-.32-.32v-8a.31.31,0,0,1,.32-.31.32.32,0,0,1,.32.31v8A.32.32,0,0,1,309.18,362.36Z" transform="translate(-90.99 -77.08)"/><path class="cls-2" d="M317.43,362.36a.31.31,0,0,1-.31-.32v-8a.32.32,0,0,1,.63,0v8A.32.32,0,0,1,317.43,362.36Z" transform="translate(-90.99 -77.08)"/><path class="cls-2" d="M325.69,362.36a.32.32,0,0,1-.32-.32v-8a.31.31,0,0,1,.32-.31.32.32,0,0,1,.32.31v8A.32.32,0,0,1,325.69,362.36Z" transform="translate(-90.99 -77.08)"/><path class="cls-2" d="M333.94,362.36a.31.31,0,0,1-.31-.32v-8a.32.32,0,0,1,.63,0v8A.32.32,0,0,1,333.94,362.36Z" transform="translate(-90.99 -77.08)"/><path class="cls-2" d="M342.2,362.36a.32.32,0,0,1-.32-.32v-8a.32.32,0,0,1,.63,0v8A.31.31,0,0,1,342.2,362.36Z" transform="translate(-90.99 -77.08)"/><rect class="cls-1" x="126.26" y="242.28" width="122.81" height="15.48"/><path class="cls-2" d="M224.88,331.4a.32.32,0,0,1-.32-.32v-8a.32.32,0,1,1,.63,0v8A.31.31,0,0,1,224.88,331.4Z" transform="translate(-90.99 -77.08)"/><path class="cls-2" d="M233.13,331.4a.31.31,0,0,1-.31-.32v-8a.32.32,0,1,1,.63,0v8A.32.32,0,0,1,233.13,331.4Z" transform="translate(-90.99 -77.08)"/><path class="cls-2" d="M241.39,331.4a.32.32,0,0,1-.32-.32v-8a.32.32,0,1,1,.63,0v8A.31.31,0,0,1,241.39,331.4Z" transform="translate(-90.99 -77.08)"/><path class="cls-2" d="M249.64,331.4a.32.32,0,0,1-.32-.32v-8a.32.32,0,0,1,.32-.32.32.32,0,0,1,.32.32v8A.32.32,0,0,1,249.64,331.4Z" transform="translate(-90.99 -77.08)"/><path class="cls-2" d="M257.9,331.4a.32.32,0,0,1-.32-.32v-8a.32.32,0,1,1,.63,0v8A.31.31,0,0,1,257.9,331.4Z" transform="translate(-90.99 -77.08)"/><path class="cls-2" d="M266.15,331.4a.32.32,0,0,1-.32-.32v-8a.32.32,0,1,1,.64,0v8A.32.32,0,0,1,266.15,331.4Z" transform="translate(-90.99 -77.08)"/><path class="cls-2" d="M274.4,331.4a.31.31,0,0,1-.31-.32v-8a.32.32,0,1,1,.63,0v8A.32.32,0,0,1,274.4,331.4Z" transform="translate(-90.99 -77.08)"/><path class="cls-2" d="M282.66,331.4a.32.32,0,0,1-.32-.32v-8a.32.32,0,0,1,.32-.32.32.32,0,0,1,.32.32v8A.32.32,0,0,1,282.66,331.4Z" transform="translate(-90.99 -77.08)"/><path class="cls-2" d="M290.91,331.4a.31.31,0,0,1-.31-.32v-8a.32.32,0,1,1,.63,0v8A.32.32,0,0,1,290.91,331.4Z" transform="translate(-90.99 -77.08)"/><path class="cls-2" d="M299.17,331.4a.32.32,0,0,1-.32-.32v-8a.32.32,0,1,1,.63,0v8A.31.31,0,0,1,299.17,331.4Z" transform="translate(-90.99 -77.08)"/><path class="cls-2" d="M307.42,331.4a.31.31,0,0,1-.31-.32v-8a.32.32,0,1,1,.63,0v8A.32.32,0,0,1,307.42,331.4Z" transform="translate(-90.99 -77.08)"/><path class="cls-2" d="M315.68,331.4a.32.32,0,0,1-.32-.32v-8a.32.32,0,1,1,.63,0v8A.31.31,0,0,1,315.68,331.4Z" transform="translate(-90.99 -77.08)"/><path class="cls-2" d="M323.93,331.4a.31.31,0,0,1-.31-.32v-8a.32.32,0,1,1,.63,0v8A.32.32,0,0,1,323.93,331.4Z" transform="translate(-90.99 -77.08)"/><path class="cls-2" d="M332.19,331.4a.32.32,0,0,1-.32-.32v-8a.32.32,0,1,1,.63,0v8A.31.31,0,0,1,332.19,331.4Z" transform="translate(-90.99 -77.08)"/><rect class="cls-1" x="120.12" y="195.84" width="122.81" height="15.48"/><path class="cls-2" d="M218.74,285a.32.32,0,0,1-.32-.32v-8a.32.32,0,0,1,.32-.31.31.31,0,0,1,.32.31v8A.32.32,0,0,1,218.74,285Z" transform="translate(-90.99 -77.08)"/><path class="cls-2" d="M227,285a.32.32,0,0,1-.32-.32v-8a.32.32,0,0,1,.63,0v8A.31.31,0,0,1,227,285Z" transform="translate(-90.99 -77.08)"/><path class="cls-2" d="M235.25,285a.32.32,0,0,1-.32-.32v-8a.32.32,0,0,1,.64,0v8A.32.32,0,0,1,235.25,285Z" transform="translate(-90.99 -77.08)"/><path class="cls-2" d="M243.5,285a.31.31,0,0,1-.31-.32v-8a.32.32,0,0,1,.63,0v8A.32.32,0,0,1,243.5,285Z" transform="translate(-90.99 -77.08)"/><path class="cls-2" d="M251.76,285a.32.32,0,0,1-.32-.32v-8a.31.31,0,0,1,.32-.31.32.32,0,0,1,.32.31v8A.32.32,0,0,1,251.76,285Z" transform="translate(-90.99 -77.08)"/><path class="cls-2" d="M260,285a.31.31,0,0,1-.31-.32v-8a.32.32,0,0,1,.63,0v8A.32.32,0,0,1,260,285Z" transform="translate(-90.99 -77.08)"/><path class="cls-2" d="M268.27,285a.32.32,0,0,1-.32-.32v-8a.32.32,0,0,1,.63,0v8A.31.31,0,0,1,268.27,285Z" transform="translate(-90.99 -77.08)"/><path class="cls-2" d="M276.52,285a.31.31,0,0,1-.31-.32v-8a.32.32,0,0,1,.63,0v8A.32.32,0,0,1,276.52,285Z" transform="translate(-90.99 -77.08)"/><path class="cls-2" d="M284.78,285a.32.32,0,0,1-.32-.32v-8a.32.32,0,0,1,.63,0v8A.31.31,0,0,1,284.78,285Z" transform="translate(-90.99 -77.08)"/><path class="cls-2" d="M293,285a.31.31,0,0,1-.31-.32v-8a.32.32,0,0,1,.63,0v8A.32.32,0,0,1,293,285Z" transform="translate(-90.99 -77.08)"/><path class="cls-2" d="M301.29,285a.32.32,0,0,1-.32-.32v-8a.32.32,0,0,1,.63,0v8A.31.31,0,0,1,301.29,285Z" transform="translate(-90.99 -77.08)"/><path class="cls-2" d="M309.54,285a.32.32,0,0,1-.32-.32v-8a.32.32,0,0,1,.32-.31.31.31,0,0,1,.32.31v8A.32.32,0,0,1,309.54,285Z" transform="translate(-90.99 -77.08)"/><path class="cls-2" d="M317.8,285a.32.32,0,0,1-.32-.32v-8a.32.32,0,0,1,.63,0v8A.31.31,0,0,1,317.8,285Z" transform="translate(-90.99 -77.08)"/><path class="cls-2" d="M326.05,285a.32.32,0,0,1-.32-.32v-8a.32.32,0,0,1,.64,0v8A.32.32,0,0,1,326.05,285Z" transform="translate(-90.99 -77.08)"/><rect class="cls-1" x="113.66" y="180.36" width="122.81" height="15.48"/><path class="cls-2" d="M212.28,269.48a.32.32,0,0,1-.32-.32v-8a.32.32,0,0,1,.32-.32.32.32,0,0,1,.32.32v8A.32.32,0,0,1,212.28,269.48Z" transform="translate(-90.99 -77.08)"/><path class="cls-2" d="M220.54,269.48a.32.32,0,0,1-.32-.32v-8a.32.32,0,1,1,.63,0v8A.31.31,0,0,1,220.54,269.48Z" transform="translate(-90.99 -77.08)"/><path class="cls-2" d="M228.79,269.48a.32.32,0,0,1-.32-.32v-8a.32.32,0,1,1,.64,0v8A.32.32,0,0,1,228.79,269.48Z" transform="translate(-90.99 -77.08)"/><path class="cls-2" d="M237.05,269.48a.32.32,0,0,1-.32-.32v-8a.32.32,0,1,1,.63,0v8A.31.31,0,0,1,237.05,269.48Z" transform="translate(-90.99 -77.08)"/><path class="cls-2" d="M245.3,269.48a.32.32,0,0,1-.32-.32v-8a.32.32,0,0,1,.64,0v8A.32.32,0,0,1,245.3,269.48Z" transform="translate(-90.99 -77.08)"/><path class="cls-2" d="M253.55,269.48a.31.31,0,0,1-.31-.32v-8a.32.32,0,1,1,.63,0v8A.32.32,0,0,1,253.55,269.48Z" transform="translate(-90.99 -77.08)"/><path class="cls-2" d="M261.81,269.48a.32.32,0,0,1-.32-.32v-8a.32.32,0,0,1,.32-.32.32.32,0,0,1,.32.32v8A.32.32,0,0,1,261.81,269.48Z" transform="translate(-90.99 -77.08)"/><path class="cls-2" d="M270.06,269.48a.31.31,0,0,1-.31-.32v-8a.32.32,0,1,1,.63,0v8A.32.32,0,0,1,270.06,269.48Z" transform="translate(-90.99 -77.08)"/><path class="cls-2" d="M278.32,269.48a.32.32,0,0,1-.32-.32v-8a.32.32,0,1,1,.63,0v8A.31.31,0,0,1,278.32,269.48Z" transform="translate(-90.99 -77.08)"/><path class="cls-2" d="M286.57,269.48a.31.31,0,0,1-.31-.32v-8a.32.32,0,1,1,.63,0v8A.32.32,0,0,1,286.57,269.48Z" transform="translate(-90.99 -77.08)"/><path class="cls-2" d="M294.83,269.48a.32.32,0,0,1-.32-.32v-8a.32.32,0,1,1,.63,0v8A.31.31,0,0,1,294.83,269.48Z" transform="translate(-90.99 -77.08)"/><path class="cls-2" d="M303.08,269.48a.31.31,0,0,1-.31-.32v-8a.32.32,0,1,1,.63,0v8A.32.32,0,0,1,303.08,269.48Z" transform="translate(-90.99 -77.08)"/><path class="cls-2" d="M311.34,269.48a.32.32,0,0,1-.32-.32v-8a.32.32,0,1,1,.63,0v8A.31.31,0,0,1,311.34,269.48Z" transform="translate(-90.99 -77.08)"/><path class="cls-2" d="M319.59,269.48a.32.32,0,0,1-.32-.32v-8a.32.32,0,0,1,.32-.32.32.32,0,0,1,.32.32v8A.32.32,0,0,1,319.59,269.48Z" transform="translate(-90.99 -77.08)"/><rect class="cls-1" x="138.04" y="211.32" width="122.81" height="15.48"/><path class="cls-2" d="M236.67,300.44a.32.32,0,0,1-.32-.32v-8a.32.32,0,1,1,.63,0v8A.31.31,0,0,1,236.67,300.44Z" transform="translate(-90.99 -77.08)"/><path class="cls-2" d="M244.92,300.44a.32.32,0,0,1-.32-.32v-8a.32.32,0,1,1,.64,0v8A.32.32,0,0,1,244.92,300.44Z" transform="translate(-90.99 -77.08)"/><path class="cls-2" d="M253.17,300.44a.31.31,0,0,1-.31-.32v-8a.32.32,0,1,1,.63,0v8A.32.32,0,0,1,253.17,300.44Z" transform="translate(-90.99 -77.08)"/><path class="cls-2" d="M261.43,300.44a.32.32,0,0,1-.32-.32v-8a.32.32,0,0,1,.32-.32.32.32,0,0,1,.32.32v8A.32.32,0,0,1,261.43,300.44Z" transform="translate(-90.99 -77.08)"/><path class="cls-2" d="M269.68,300.44a.31.31,0,0,1-.31-.32v-8a.32.32,0,1,1,.63,0v8A.32.32,0,0,1,269.68,300.44Z" transform="translate(-90.99 -77.08)"/><path class="cls-2" d="M277.94,300.44a.32.32,0,0,1-.32-.32v-8a.32.32,0,1,1,.63,0v8A.31.31,0,0,1,277.94,300.44Z" transform="translate(-90.99 -77.08)"/><path class="cls-2" d="M286.19,300.44a.31.31,0,0,1-.31-.32v-8a.32.32,0,1,1,.63,0v8A.32.32,0,0,1,286.19,300.44Z" transform="translate(-90.99 -77.08)"/><path class="cls-2" d="M294.45,300.44a.32.32,0,0,1-.32-.32v-8a.32.32,0,1,1,.63,0v8A.31.31,0,0,1,294.45,300.44Z" transform="translate(-90.99 -77.08)"/><path class="cls-2" d="M302.7,300.44a.31.31,0,0,1-.31-.32v-8a.32.32,0,1,1,.63,0v8A.32.32,0,0,1,302.7,300.44Z" transform="translate(-90.99 -77.08)"/><path class="cls-2" d="M311,300.44a.32.32,0,0,1-.32-.32v-8a.32.32,0,1,1,.63,0v8A.31.31,0,0,1,311,300.44Z" transform="translate(-90.99 -77.08)"/><path class="cls-2" d="M319.21,300.44a.32.32,0,0,1-.32-.32v-8a.32.32,0,0,1,.32-.32.32.32,0,0,1,.32.32v8A.32.32,0,0,1,319.21,300.44Z" transform="translate(-90.99 -77.08)"/><path class="cls-2" d="M327.47,300.44a.32.32,0,0,1-.32-.32v-8a.32.32,0,1,1,.63,0v8A.31.31,0,0,1,327.47,300.44Z" transform="translate(-90.99 -77.08)"/><path class="cls-2" d="M335.72,300.44a.32.32,0,0,1-.32-.32v-8a.32.32,0,0,1,.64,0v8A.32.32,0,0,1,335.72,300.44Z" transform="translate(-90.99 -77.08)"/><path class="cls-2" d="M344,300.44a.31.31,0,0,1-.31-.32v-8a.32.32,0,1,1,.63,0v8A.32.32,0,0,1,344,300.44Z" transform="translate(-90.99 -77.08)"/><rect class="cls-1" x="130.29" y="226.8" width="122.81" height="15.48"/><path class="cls-2" d="M228.91,315.92a.31.31,0,0,1-.31-.32v-8a.32.32,0,0,1,.63,0v8A.32.32,0,0,1,228.91,315.92Z" transform="translate(-90.99 -77.08)"/><path class="cls-2" d="M237.17,315.92a.32.32,0,0,1-.32-.32v-8a.32.32,0,0,1,.63,0v8A.31.31,0,0,1,237.17,315.92Z" transform="translate(-90.99 -77.08)"/><path class="cls-2" d="M245.42,315.92a.31.31,0,0,1-.31-.32v-8a.32.32,0,0,1,.63,0v8A.32.32,0,0,1,245.42,315.92Z" transform="translate(-90.99 -77.08)"/><path class="cls-2" d="M253.68,315.92a.32.32,0,0,1-.32-.32v-8a.32.32,0,0,1,.63,0v8A.31.31,0,0,1,253.68,315.92Z" transform="translate(-90.99 -77.08)"/><path class="cls-2" d="M261.93,315.92a.31.31,0,0,1-.31-.32v-8a.32.32,0,0,1,.63,0v8A.32.32,0,0,1,261.93,315.92Z" transform="translate(-90.99 -77.08)"/><path class="cls-2" d="M270.19,315.92a.32.32,0,0,1-.32-.32v-8a.32.32,0,0,1,.63,0v8A.31.31,0,0,1,270.19,315.92Z" transform="translate(-90.99 -77.08)"/><path class="cls-2" d="M278.44,315.92a.31.31,0,0,1-.31-.32v-8a.32.32,0,0,1,.63,0v8A.32.32,0,0,1,278.44,315.92Z" transform="translate(-90.99 -77.08)"/><path class="cls-2" d="M286.7,315.92a.32.32,0,0,1-.32-.32v-8a.32.32,0,0,1,.63,0v8A.31.31,0,0,1,286.7,315.92Z" transform="translate(-90.99 -77.08)"/><path class="cls-2" d="M295,315.92a.32.32,0,0,1-.32-.32v-8a.32.32,0,0,1,.32-.31.31.31,0,0,1,.32.31v8A.32.32,0,0,1,295,315.92Z" transform="translate(-90.99 -77.08)"/><path class="cls-2" d="M303.21,315.92a.32.32,0,0,1-.32-.32v-8a.32.32,0,0,1,.63,0v8A.31.31,0,0,1,303.21,315.92Z" transform="translate(-90.99 -77.08)"/><path class="cls-2" d="M311.46,315.92a.32.32,0,0,1-.32-.32v-8a.32.32,0,0,1,.64,0v8A.32.32,0,0,1,311.46,315.92Z" transform="translate(-90.99 -77.08)"/><path class="cls-2" d="M319.71,315.92a.31.31,0,0,1-.31-.32v-8a.32.32,0,0,1,.63,0v8A.32.32,0,0,1,319.71,315.92Z" transform="translate(-90.99 -77.08)"/><path class="cls-2" d="M328,315.92a.32.32,0,0,1-.32-.32v-8a.31.31,0,0,1,.32-.31.32.32,0,0,1,.32.31v8A.32.32,0,0,1,328,315.92Z" transform="translate(-90.99 -77.08)"/><path class="cls-2" d="M336.22,315.92a.31.31,0,0,1-.31-.32v-8a.32.32,0,0,1,.63,0v8A.32.32,0,0,1,336.22,315.92Z" transform="translate(-90.99 -77.08)"/><rect class="cls-1" x="143.9" y="257.76" width="122.81" height="15.48"/><path class="cls-2" d="M242.52,346.88a.32.32,0,0,1-.32-.32v-8a.32.32,0,0,1,.64,0v8A.32.32,0,0,1,242.52,346.88Z" transform="translate(-90.99 -77.08)"/><path class="cls-2" d="M250.77,346.88a.31.31,0,0,1-.31-.32v-8a.32.32,0,0,1,.63,0v8A.32.32,0,0,1,250.77,346.88Z" transform="translate(-90.99 -77.08)"/><path class="cls-2" d="M259,346.88a.32.32,0,0,1-.32-.32v-8a.31.31,0,0,1,.32-.31.32.32,0,0,1,.32.31v8A.32.32,0,0,1,259,346.88Z" transform="translate(-90.99 -77.08)"/><path class="cls-2" d="M267.28,346.88a.31.31,0,0,1-.31-.32v-8a.32.32,0,0,1,.63,0v8A.32.32,0,0,1,267.28,346.88Z" transform="translate(-90.99 -77.08)"/><path class="cls-2" d="M275.54,346.88a.32.32,0,0,1-.32-.32v-8a.32.32,0,0,1,.63,0v8A.31.31,0,0,1,275.54,346.88Z" transform="translate(-90.99 -77.08)"/><path class="cls-2" d="M283.79,346.88a.31.31,0,0,1-.31-.32v-8a.32.32,0,0,1,.63,0v8A.32.32,0,0,1,283.79,346.88Z" transform="translate(-90.99 -77.08)"/><path class="cls-2" d="M292.05,346.88a.32.32,0,0,1-.32-.32v-8a.32.32,0,0,1,.63,0v8A.31.31,0,0,1,292.05,346.88Z" transform="translate(-90.99 -77.08)"/><path class="cls-2" d="M300.3,346.88a.31.31,0,0,1-.31-.32v-8a.32.32,0,0,1,.63,0v8A.32.32,0,0,1,300.3,346.88Z" transform="translate(-90.99 -77.08)"/><path class="cls-2" d="M308.56,346.88a.32.32,0,0,1-.32-.32v-8a.32.32,0,0,1,.63,0v8A.31.31,0,0,1,308.56,346.88Z" transform="translate(-90.99 -77.08)"/><path class="cls-2" d="M316.81,346.88a.31.31,0,0,1-.31-.32v-8a.32.32,0,0,1,.63,0v8A.32.32,0,0,1,316.81,346.88Z" transform="translate(-90.99 -77.08)"/><path class="cls-2" d="M325.07,346.88a.32.32,0,0,1-.32-.32v-8a.32.32,0,0,1,.63,0v8A.31.31,0,0,1,325.07,346.88Z" transform="translate(-90.99 -77.08)"/><path class="cls-2" d="M333.32,346.88a.32.32,0,0,1-.32-.32v-8a.32.32,0,0,1,.32-.31.31.31,0,0,1,.32.31v8A.32.32,0,0,1,333.32,346.88Z" transform="translate(-90.99 -77.08)"/><path class="cls-2" d="M341.58,346.88a.32.32,0,0,1-.32-.32v-8a.32.32,0,0,1,.63,0v8A.31.31,0,0,1,341.58,346.88Z" transform="translate(-90.99 -77.08)"/><path class="cls-2" d="M349.83,346.88a.32.32,0,0,1-.32-.32v-8a.32.32,0,0,1,.64,0v8A.32.32,0,0,1,349.83,346.88Z" transform="translate(-90.99 -77.08)"/><path class="cls-3" d="M319.59,273.23H216.27a.32.32,0,1,1,0-.63H319.59a.32.32,0,1,1,0,.63Z" transform="translate(-90.99 -77.08)"/><path class="cls-3" d="M341.07,304.19H234.89a.32.32,0,1,1,0-.63H341.07a.32.32,0,1,1,0,.63Z" transform="translate(-90.99 -77.08)"/><path class="cls-3" d="M334.29,319.67H228.11a.32.32,0,1,1,0-.63H334.29a.32.32,0,0,1,0,.63Z" transform="translate(-90.99 -77.08)"/><path class="cls-3" d="M337.88,335.15H238.4a.32.32,0,0,1,0-.63h99.48a.32.32,0,1,1,0,.63Z" transform="translate(-90.99 -77.08)"/><path class="cls-3" d="M346.11,350.63H238.56a.32.32,0,0,1,0-.63H346.11a.32.32,0,1,1,0,.63Z" transform="translate(-90.99 -77.08)"/><path class="cls-3" d="M330.29,288.71h-98a.32.32,0,0,1,0-.63h98a.32.32,0,1,1,0,.63Z" transform="translate(-90.99 -77.08)"/><path class="cls-4" d="M159.55,336.12c-.65.76-1.29,1.6-1.92,2.46a67.41,67.41,0,0,0-5.21,8.47,178.38,178.38,0,0,0-8.37,18.75s-37.68,4.63-53.06-7.74c6-12.3,27.68-3.57,43.32-16.09a32.22,32.22,0,0,0,7.76-9.19,40.78,40.78,0,0,0,2.84-5.69Z" transform="translate(-90.99 -77.08)"/><path class="cls-5" d="M152.42,347.05c-2.45,4.61-4.63,9.54-6.4,13.84-.73,1.77-1.39,3.42-2,4.91,0,0-37.68,4.63-53.06-7.74a11,11,0,0,1,1.9-2.76c7.82-8.17,27.15-1.9,41.42-13.33C138.38,345.91,147.31,347.56,152.42,347.05Z" transform="translate(-90.99 -77.08)"/><path class="cls-6" d="M146,360.89c-.73,1.77-1.39,3.42-2,4.91,0,0-37.68,4.63-53.06-7.74a11,11,0,0,1,1.9-2.76C101.44,360.36,121.81,366,146,360.89Z" transform="translate(-90.99 -77.08)"/><path class="cls-2" d="M108.38,360.22h0a.3.3,0,0,1-.28-.34,8.3,8.3,0,0,0-3.95-7.94.31.31,0,0,1-.11-.43.32.32,0,0,1,.44-.11,8.92,8.92,0,0,1,4.25,8.54A.33.33,0,0,1,108.38,360.22Z" transform="translate(-90.99 -77.08)"/><path class="cls-2" d="M108.43,354.62a.32.32,0,0,1-.32-.3.33.33,0,0,1,.3-.33,62.92,62.92,0,0,0,28.9-8.73.3.3,0,0,1,.43.11.31.31,0,0,1-.11.43,63.49,63.49,0,0,1-29.18,8.82Z" transform="translate(-90.99 -77.08)"/><path class="cls-7" d="M159.55,336.12c-.65.76-1.29,1.6-1.92,2.46l-15.56-5.8a40.78,40.78,0,0,0,2.84-5.69Z" transform="translate(-90.99 -77.08)"/><path class="cls-4" d="M232,170.86s-8.64-6.73-16.15-3.27-12.29,20.65-12.29,20.65,2.54,1.45,5.09-3.76a52.39,52.39,0,0,1,3.09-5.91s2.48,5.61,7,2.58c-.06,4.6,1.88,7.09,4.42,6.78-.91-3.27-1.7-12.85,4.48-10.42Z" transform="translate(-90.99 -77.08)"/><path class="cls-8" d="M211.51,177.83a.32.32,0,0,1-.3-.24,11,11,0,0,1,.46-6.08.32.32,0,0,1,.58.27,10.32,10.32,0,0,0-.43,5.65.33.33,0,0,1-.22.39Z" transform="translate(-90.99 -77.08)"/><path class="cls-8" d="M219.35,180.82a.3.3,0,0,1-.26-.13.32.32,0,0,1,.07-.44c1.49-1.11,2-2.23,1.69-2.71a1,1,0,0,0-.64-.51,2.12,2.12,0,0,0-1.48.59,2.32,2.32,0,0,1-2.48.33c-.56-.27-1.49-1-1.46-3.12a.31.31,0,0,1,.32-.31h0a.3.3,0,0,1,.31.32,2.62,2.62,0,0,0,1.11,2.55,1.68,1.68,0,0,0,1.81-.27,2.58,2.58,0,0,1,2-.71,1.59,1.59,0,0,1,1.07.8c.55.9-.2,2.32-1.85,3.55A.35.35,0,0,1,219.35,180.82Z" transform="translate(-90.99 -77.08)"/><path class="cls-5" d="M266.62,161l-28.1-22.93a14.46,14.46,0,0,1-.65-21.84l21.69-19.94,12.75,19.58-7.78,7.32a6.66,6.66,0,0,0,.6,10.18l10.25,7.6Z" transform="translate(-90.99 -77.08)"/><path class="cls-4" d="M283.88,80.75c1.88-2.85,4.26-4.24,6-3.46s0,3,0,3,2.09-3.15,4.63-1.38-.36,4.56-.36,4.56,2.72-2.91,4.48-1.33,0,3.83,0,3.83,2.6-.68,3.45,1.56-2.74,5.17-2.74,5.17L287,90Z" transform="translate(-90.99 -77.08)"/><path class="cls-6" d="M260.69,153.64a.3.3,0,0,1-.18-.06.31.31,0,0,1-.08-.44,12.2,12.2,0,0,0,.93-9.41c-1-3.36-3.44-5.81-7.18-7.28-4.09-1.61-6.35-3.44-6.93-5.59-.73-2.75,1.36-5.67,3.75-8.67,1.55-1.93,4-5.59,2.81-8.35-.8-1.91-3.19-3.08-7.08-3.47a.31.31,0,0,1-.28-.35.29.29,0,0,1,.34-.28c4.15.42,6.7,1.72,7.6,3.85s-.07,5.47-2.89,9c-2.29,2.86-4.29,5.64-3.64,8.1.52,1.95,2.67,3.64,6.55,5.17a12.06,12.06,0,0,1,7.55,7.69c1.24,4,.16,8.25-1,9.95A.31.31,0,0,1,260.69,153.64Z" transform="translate(-90.99 -77.08)"/><path class="cls-7" d="M262,103.46c-5.32-1.38-7.1-6.47-5-10.1s5.37-4,7.9-2.42c-1.36-9,8.82-13.24,14.71-7.59,1.29-5,11.47-4.44,11.71,6,8.11-3.9,18.25,10.34,5.14,24.27a7.88,7.88,0,0,0-2.16,6.1c.31,3.46.81,7.87.81,7.87l-14.44-15.83Z" transform="translate(-90.99 -77.08)"/><path class="cls-4" d="M280.79,129.6l1.34-3.62-.15.1a28.13,28.13,0,0,1-7.82,2.94,4.34,4.34,0,0,1-4.73-2.23c-4-7.57-6.93-16.67-7.46-23.33,2.4.71,8.4-.68,10.17-4.55.35,2.12,4.17,4.6,7.08.91-.78,5,4.53,8.85,4.53,8.85s4.43-6.5,7.39-1.94a5.41,5.41,0,0,1-.89,7.51l9.06,18.65H279.58Z" transform="translate(-90.99 -77.08)"/><path class="cls-7" d="M266.62,108.86h-.08a.31.31,0,0,1-.22-.39,5.7,5.7,0,0,1,4.42-4.17.32.32,0,0,1,.12.63,5,5,0,0,0-3.93,3.7A.33.33,0,0,1,266.62,108.86Z" transform="translate(-90.99 -77.08)"/><path class="cls-7" d="M285.33,112.49a.18.18,0,0,1-.1,0,.31.31,0,0,1-.19-.4,8.91,8.91,0,0,1,3.39-4.4.31.31,0,0,1,.44.09.32.32,0,0,1-.09.44,8.33,8.33,0,0,0-3.15,4.08A.3.3,0,0,1,285.33,112.49Z" transform="translate(-90.99 -77.08)"/><path class="cls-4" d="M264.74,110.66c-2,1.83-2.74,4.85-3,6.72a1.56,1.56,0,0,0,1.52,1.8,14.51,14.51,0,0,0,5.3-.83Z" transform="translate(-90.99 -77.08)"/><path class="cls-8" d="M272.31,121.86a7.51,7.51,0,0,0,3.46-4.6,2.88,2.88,0,0,1-3.46,4.6Z" transform="translate(-90.99 -77.08)"/><path class="cls-2" d="M273.18,112.27a4.14,4.14,0,0,1-.56.55,6.44,6.44,0,0,1-4.86,1.65,7.59,7.59,0,0,1,6.81-7.9A6.49,6.49,0,0,1,273.18,112.27Z" transform="translate(-90.99 -77.08)"/><path class="cls-7" d="M272.62,112.82a6.44,6.44,0,0,1-4.86,1.65,7.5,7.5,0,0,1,2-5.49A4.49,4.49,0,0,1,272.62,112.82Z" transform="translate(-90.99 -77.08)"/><path class="cls-7" d="M287,122.39s-.28,4.45-6.18,7.21l1.34-3.62A27.14,27.14,0,0,0,287,122.39Z" transform="translate(-90.99 -77.08)"/><path class="cls-5" d="M263.41,95.51a9.77,9.77,0,0,1-3-.62,7,7,0,0,0-2.76-.51.3.3,0,0,1-.35-.28.32.32,0,0,1,.28-.34,7,7,0,0,1,3,.52c1.77.57,3.6,1.16,5.86-.47,1.72-1.24,2-3.29,2.32-5.45.44-3.1.9-6.32,5.77-7a.32.32,0,0,1,.36.27.33.33,0,0,1-.27.36c-4.41.63-4.81,3.47-5.24,6.48-.31,2.2-.63,4.48-2.57,5.88A5.71,5.71,0,0,1,263.41,95.51Z" transform="translate(-90.99 -77.08)"/><path class="cls-5" d="M294.54,114.81a.33.33,0,0,1-.28-.17c0-.09-1-2.1,1.69-8.19,1.14-2.59,1.13-4.78-.05-6.14s-3.08-1.68-5.21-1.1c-4.78,1.31-8,.11-10.32-3.86a4.28,4.28,0,0,0-3-2.29c-1.89-.29-4.28.83-7,3.24-4.4,3.93-8.13,5.32-11.73,4.37a.31.31,0,0,1-.23-.38.34.34,0,0,1,.39-.23c3.39.89,6.92-.46,11.15-4.23,2.88-2.57,5.4-3.7,7.48-3.39A4.84,4.84,0,0,1,280.91,95c2.22,3.73,5.1,4.8,9.61,3.58,2.39-.66,4.62-.16,5.86,1.28s1.39,4,.14,6.81c-2.53,5.74-1.7,7.63-1.7,7.65a.31.31,0,0,1-.14.42A.25.25,0,0,1,294.54,114.81Z" transform="translate(-90.99 -77.08)"/><path class="cls-5" d="M289.41,96.63a5.3,5.3,0,0,1-3.81-1.73c-2.21-2.17-1.34-4.8-.5-7.36.75-2.26,1.45-4.41,0-6.11a.31.31,0,0,1,.47-.41c1.69,2,.9,4.39.13,6.72-.82,2.48-1.59,4.82.34,6.71,2.88,2.82,5.57,1.24,8.16-.3,1.64-1,3.2-1.9,4.62-1.44a4,4,0,0,1,2.24,2.34.32.32,0,0,1-.15.43.33.33,0,0,1-.42-.16,3.42,3.42,0,0,0-1.85-2c-1.16-.36-2.59.49-4.11,1.39S291.26,96.63,289.41,96.63Z" transform="translate(-90.99 -77.08)"/><path class="cls-5" d="M279.31,88.11h-.09a1.2,1.2,0,0,1-1.14-.83c-.29-.78,0-2.12,1.33-3.36l.28-.25.2.31c.94,1.43,1.22,2.65.79,3.41A1.51,1.51,0,0,1,279.31,88.11Zm.26-3.45a2.62,2.62,0,0,0-.9,2.4.58.58,0,0,0,.57.41.94.94,0,0,0,.88-.39C280.26,86.84,280.46,86.14,279.57,84.66Z" transform="translate(-90.99 -77.08)"/><path class="cls-5" d="M289.81,93.63a1.75,1.75,0,0,1-.83-.22,1.21,1.21,0,0,1-.69-1.22c.07-.83.9-1.92,2.62-2.49l.36-.12.06.37c.25,1.7,0,2.91-.73,3.43A1.3,1.3,0,0,1,289.81,93.63Zm.94-3.2c-1.19.49-1.78,1.26-1.83,1.81a.59.59,0,0,0,.35.61.91.91,0,0,0,1,0C290.46,92.7,290.93,92.15,290.75,90.43Z" transform="translate(-90.99 -77.08)"/><path class="cls-7" d="M263.65,119.5h-.43a1.92,1.92,0,0,1-1.41-.69,1.89,1.89,0,0,1-.42-1.48c.28-1.75,1-5,3.14-6.9a.32.32,0,0,1,.45,0,.33.33,0,0,1,0,.45c-2,1.8-2.68,4.87-2.94,6.54a1.25,1.25,0,0,0,.27,1,1.29,1.29,0,0,0,.95.45,13.7,13.7,0,0,0,5.18-.81.32.32,0,0,1,.22.6A14.69,14.69,0,0,1,263.65,119.5Z" transform="translate(-90.99 -77.08)"/><path class="cls-5" d="M302.35,143.78v-7.6a4.06,4.06,0,0,0-4.06-4.06h-22a4.06,4.06,0,0,0-4.06,4.06v9.16a50.44,50.44,0,0,0-11.8,30.43,30.55,30.55,0,0,0-9.74-3.28,14.75,14.75,0,0,0-8.17,1.09l-8.12-4.69a2.27,2.27,0,0,0-3.09.83l-5.45,9.45a2.24,2.24,0,0,0,.82,3.08l6.89,4A14.38,14.38,0,0,0,237,196.87c6.58,7.59,18.32,14.13,29.07,16.8l.5.11-.5,2.8,38.47,10.66c4.91-19.23,6.81-43.43,4.7-58.52l1-2.75A18.18,18.18,0,0,0,302.35,143.78Z" transform="translate(-90.99 -77.08)"/><path class="cls-6" d="M304.7,213.3c-5.7,0-6.82-3.21-8.22-7.21-1.23-3.52-2.62-7.51-7.5-10.68-5.05-3.29-11.2-.2-17.15,2.79-6.53,3.27-13.26,6.66-18,.9s-2.45-11.15-.55-15.45c1.71-3.89,3.06-7-.59-9.44a.31.31,0,0,1-.09-.44.32.32,0,0,1,.44-.08c4.09,2.76,2.5,6.38.82,10.21-1.92,4.36-4.1,9.3.46,14.79s10.69,2.25,17.27-1.05c6.11-3.08,12.43-6.25,17.78-2.76,5.06,3.29,6.56,7.56,7.76,11,1.45,4.14,2.5,7.14,8.64,6.75a.33.33,0,0,1,.34.29.32.32,0,0,1-.3.34C305.39,213.28,305,213.3,304.7,213.3Z" transform="translate(-90.99 -77.08)"/><path class="cls-6" d="M298.11,191.77a.31.31,0,0,1-.26-.14c-1.86-2.73-2.59-8.86.21-15.87,1.5-3.74,1.18-7.41-.78-8.91s-5.57-.7-9.88,2.5c-6.55,4.88-10,3.84-11.41,2.79-2.08-1.51-2.64-4.79-1.43-8.35,1.49-4.39,1.46-7.76-.09-9.24-1.3-1.25-3.66-1.22-7,.07a.31.31,0,0,1-.41-.18.32.32,0,0,1,.18-.41c3.6-1.39,6.18-1.37,7.68.06,2.37,2.28,1.17,7.18.25,9.9-1.12,3.29-.65,6.29,1.2,7.64,2.22,1.62,6.11.6,10.66-2.78,6.15-4.58,9.31-3.54,10.65-2.5,2.21,1.7,2.61,5.58,1,9.65-2.9,7.25-1.75,13.11-.27,15.28a.32.32,0,0,1-.09.44A.27.27,0,0,1,298.11,191.77Z" transform="translate(-90.99 -77.08)"/><path class="cls-2" d="M273.77,190.25h0a.32.32,0,0,1-.29-.23c-.91-3.32-8.39-10.42-12-13a.33.33,0,0,1-.07-.45.32.32,0,0,1,.44-.07c3,2.16,10.17,8.71,11.94,12.6l14-33.66a.31.31,0,0,1,.41-.17.32.32,0,0,1,.17.42l-14.29,34.39A.32.32,0,0,1,273.77,190.25Z" transform="translate(-90.99 -77.08)"/><path class="cls-6" d="M239.25,176.2a.32.32,0,0,1-.16,0l-6.78-3.88a.32.32,0,0,1-.12-.43.31.31,0,0,1,.43-.12l6.79,3.88a.31.31,0,0,1,.11.43A.3.3,0,0,1,239.25,176.2Z" transform="translate(-90.99 -77.08)"/><path class="cls-6" d="M237.32,179.63a.42.42,0,0,1-.16,0l-6.78-3.88a.31.31,0,0,1-.12-.43.31.31,0,0,1,.43-.12l6.78,3.88a.3.3,0,0,1,.12.43A.32.32,0,0,1,237.32,179.63Z" transform="translate(-90.99 -77.08)"/><path class="cls-6" d="M235.35,182.76a.26.26,0,0,1-.15,0l-6.79-3.88a.31.31,0,0,1-.11-.43.3.3,0,0,1,.43-.11l6.78,3.87a.32.32,0,0,1,.12.43A.31.31,0,0,1,235.35,182.76Z" transform="translate(-90.99 -77.08)"/><path class="cls-6" d="M276.81,143h0a.32.32,0,0,1-.28-.35l.87-7.19a.31.31,0,0,1,.35-.27.3.3,0,0,1,.27.35l-.86,7.18A.31.31,0,0,1,276.81,143Z" transform="translate(-90.99 -77.08)"/><path class="cls-6" d="M283.32,143h0a.31.31,0,0,1-.28-.35l.86-7.19a.31.31,0,0,1,.35-.27.32.32,0,0,1,.28.35l-.86,7.18A.32.32,0,0,1,283.32,143Z" transform="translate(-90.99 -77.08)"/><path class="cls-6" d="M289.84,143h0a.32.32,0,0,1-.28-.35l.86-7.19a.31.31,0,0,1,.35-.27.31.31,0,0,1,.28.35l-.86,7.18A.31.31,0,0,1,289.84,143Z" transform="translate(-90.99 -77.08)"/><path class="cls-6" d="M296.35,143h0a.31.31,0,0,1-.27-.35l.86-7.19a.31.31,0,0,1,.35-.27.32.32,0,0,1,.28.35l-.87,7.18A.31.31,0,0,1,296.35,143Z" transform="translate(-90.99 -77.08)"/><path class="cls-2" d="M304.29,219.2h-.08l-18.83-4.85a.31.31,0,0,1-.23-.38.29.29,0,0,1,.38-.23l18.84,4.84a.32.32,0,0,1-.08.63Z" transform="translate(-90.99 -77.08)"/><path class="cls-7" d="M291.37,209a22.66,22.66,0,0,0,5.94-8.75L307.26,174C306.7,190.58,304,202.31,291.37,209Z" transform="translate(-90.99 -77.08)"/><path class="cls-2" d="M276.23,215.11h-.34a50.07,50.07,0,0,1-7.42-.62.31.31,0,0,1-.25-.36.32.32,0,0,1,.36-.26,48.81,48.81,0,0,0,7.32.6h.33A22.28,22.28,0,0,0,297,200.11l10.81-28.56a.31.31,0,0,1,.4-.19.32.32,0,0,1,.19.41L297.6,200.33A22.92,22.92,0,0,1,276.23,215.11Z" transform="translate(-90.99 -77.08)"/><path class="cls-2" d="M203.43,118.52a19.63,19.63,0,0,0-19.63,19.64,19.43,19.43,0,0,0,2,8.57l-8,9.22,11.88-3.82a19.63,19.63,0,1,0,13.78-33.61Z" transform="translate(-90.99 -77.08)"/><path class="cls-6" d="M203.43,158.1a19.79,19.79,0,0,1-13.86-5.62l-12.79,4.12,8.64-9.92a19.77,19.77,0,0,1-1.93-8.53,19.95,19.95,0,1,1,19.94,19.95Zm-13.69-6.33.14.13a19.47,19.47,0,1,0-3.8-5.31l.09.19-7.42,8.52Z" transform="translate(-90.99 -77.08)"/><path class="cls-3" d="M212.59,141.35a9.44,9.44,0,1,1-5.9-12A9.43,9.43,0,0,1,212.59,141.35Z" transform="translate(-90.99 -77.08)"/><path class="cls-1" d="M213.32,141.6a9.44,9.44,0,1,1-5.9-12A9.44,9.44,0,0,1,213.32,141.6Z" transform="translate(-90.99 -77.08)"/><path class="cls-2" d="M208.75,136.77h-3.12c0-.71-.74-.86-1.19-.86-.29,0-1.22,0-1.22.57,0,1.28,5.75,0,5.75,3.57,0,2.17-1.7,3-3.79,3.14l.13,2.3h-1.9l.12-2.32c-1.94-.2-3.74-1.11-3.74-3.07h3.11v.07c0,.86,1,1,1.47,1s1.4,0,1.4-.66c0-1.33-5.75-.12-5.75-3.62,0-2,1.57-2.8,3.51-3l-.12-2.32h1.9l-.13,2.31C207.05,134.09,208.75,134.9,208.75,136.77Z" transform="translate(-90.99 -77.08)"/><path class="cls-5" d="M231.62,195.07H192.81v4.41h38.81a2.21,2.21,0,0,0,0-4.41Z" transform="translate(-90.99 -77.08)"/><polygon class="cls-5" points="74.66 78.53 39.99 78.53 72.26 122.41 106.92 122.41 74.66 78.53"/><path class="cls-2" d="M166.57,175.58c3.2,4.6,4.27,8.33,2.39,8.33s-6-3.73-9.22-8.33-4.27-8.32-2.38-8.32S163.37,171,166.57,175.58Z" transform="translate(-90.99 -77.08)"/><path class="cls-8" d="M304.52,227.23a75.38,75.38,0,0,1-13.15,30.39l-80.25-.18a664.39,664.39,0,0,0-31.5,65.37c-1.57,3.75-3.17,7.62-4.73,11.57q-1.6,4-3.19,8.19s-27.78-9.71-40.53-24.41c0,0,14.12-55,41.34-93.33a27.63,27.63,0,0,1,20.09-11.54c15.45-1.47,43.59-2.63,73.47,3.29Z" transform="translate(-90.99 -77.08)"/><path class="cls-7" d="M179.62,322.81c-1.57,3.75-3.17,7.62-4.73,11.57-3.55-9.11-10.55-34.89-11.41-53.72Z" transform="translate(-90.99 -77.08)"/><path class="cls-1" d="M146.91,323.11h-.06a.32.32,0,0,1-.25-.37c1.46-7.6,6.59-28.75,22.72-60.76,19.78-39.22,56.4-27.55,74-21.94l1,.31c17.77,5.65,38.84,3.1,45.84-15.31a.31.31,0,0,1,.41-.19.32.32,0,0,1,.18.41c-7.15,18.8-28.57,21.42-46.62,15.69l-1-.31c-17.44-5.56-53.72-17.12-73.25,21.63-16.1,31.93-21.21,53-22.67,60.59A.32.32,0,0,1,146.91,323.11Z" transform="translate(-90.99 -77.08)"/><path class="cls-7" d="M237.32,214.79a49.62,49.62,0,0,0-25,11.8c1.53,9.8,3.11,21,2.1,30.84h-5.17l-7.39-36.73Z" transform="translate(-90.99 -77.08)"/><path class="cls-8" d="M207.14,225.13a433,433,0,0,1,14.15,96.57,58.59,58.59,0,0,1-41.82,8.07,179.67,179.67,0,0,1-15.41-113.19,21.15,21.15,0,0,1,7.39-12.73c.05,0,.07-.07.12-.1a20,20,0,0,1,11.29-4.07,142.87,142.87,0,0,1,70.56,14.77A76.2,76.2,0,0,0,207.14,225.13Z" transform="translate(-90.99 -77.08)"/><path class="cls-7" d="M221.29,321.7a58.59,58.59,0,0,1-41.82,8.07A51.1,51.1,0,0,1,221.29,321.7Z" transform="translate(-90.99 -77.08)"/><path class="cls-1" d="M200.63,314.57h0a.31.31,0,0,1-.3-.33,258.65,258.65,0,0,0-12.49-86.13A14,14,0,0,1,198.92,210a116.42,116.42,0,0,1,46.21,1.77.31.31,0,0,1,.23.38.3.3,0,0,1-.38.23,116.1,116.1,0,0,0-46-1.76,13.37,13.37,0,0,0-10.58,17.27A259.12,259.12,0,0,1,201,314.26.33.33,0,0,1,200.63,314.57Z" transform="translate(-90.99 -77.08)"/><path class="cls-4" d="M213.62,345c-4.25,7.92-22.31,28.19-36.13,25.33a4.89,4.89,0,0,1-3.89-4.46c-1-12.82,16.74-16.74,19.43-27.24.15-.59.27-1.14.38-1.67a31,31,0,0,0,.2-13.19s5.69-2.75,15.15-2.7c.18,1.92.43,4.35.79,6.93C210.36,334.1,211.67,341.21,213.62,345Z" transform="translate(-90.99 -77.08)"/><path class="cls-5" d="M213.62,345c-4.25,7.92-22.31,28.19-36.13,25.33a4.89,4.89,0,0,1-3.89-4.46,9.65,9.65,0,0,1,.07-2.42c1.27-10.93,16.85-15,19.36-24.82.15-.59.27-1.14.38-1.67,4.17-.16,13.25-2.53,16.14-9a86.16,86.16,0,0,0,2.58,13.16A24.5,24.5,0,0,0,213.62,345Z" transform="translate(-90.99 -77.08)"/><path class="cls-6" d="M213.62,345c-4.25,7.92-22.31,28.19-36.13,25.33a4.89,4.89,0,0,1-3.89-4.46,9.65,9.65,0,0,1,.07-2.42c.81,4.65,7.57,4.52,14.68.93s19.2-14.67,23.78-23.22A24.5,24.5,0,0,0,213.62,345Z" transform="translate(-90.99 -77.08)"/><path class="cls-2" d="M188.1,363.61a.31.31,0,0,1-.31-.27,8.58,8.58,0,0,0-9-7.2.3.3,0,0,1-.33-.29.31.31,0,0,1,.29-.34l.61,0a9.19,9.19,0,0,1,9.09,7.75.32.32,0,0,1-.26.36Z" transform="translate(-90.99 -77.08)"/><path class="cls-2" d="M184.3,356.12a.31.31,0,0,1-.2-.07.32.32,0,0,1,0-.45,84.62,84.62,0,0,1,7.77-7.71c4.32-3.91,7.45-6.74,7.58-11.09a.31.31,0,0,1,.32-.31h0a.31.31,0,0,1,.31.33c-.14,4.62-3.35,7.52-7.79,11.54a83.53,83.53,0,0,0-7.71,7.66A.31.31,0,0,1,184.3,356.12Z" transform="translate(-90.99 -77.08)"/><path class="cls-7" d="M169.77,311.93a.32.32,0,0,1-.31-.23c-4.53-16.56-9.05-42.85-8.89-61a.31.31,0,0,1,.32-.31h0a.31.31,0,0,1,.31.32c-.16,18.13,4.35,44.35,8.87,60.87a.31.31,0,0,1-.22.39Z" transform="translate(-90.99 -77.08)"/><path class="cls-7" d="M290.89,223.77h-.08L266,216.88a.32.32,0,0,1-.22-.39.32.32,0,0,1,.39-.22L291,223.15a.33.33,0,0,1,.22.39A.32.32,0,0,1,290.89,223.77Z" transform="translate(-90.99 -77.08)"/><path class="cls-7" d="M264.72,157.75a.27.27,0,0,1-.12,0,.32.32,0,0,1-.17-.41c.34-.81,3.36-8,7.52-12.1v-4.33a.32.32,0,1,1,.63,0v4.46a.32.32,0,0,1-.09.23c-4.12,4-7.14,11.18-7.47,12A.31.31,0,0,1,264.72,157.75Z" transform="translate(-90.99 -77.08)"/><path class="cls-1" d="M171.06,337.69l-.09,0a92.19,92.19,0,0,1-36.62-21.55.31.31,0,0,1,0-.45.31.31,0,0,1,.44,0,91.62,91.62,0,0,0,36.37,21.4.32.32,0,0,1,.21.4A.31.31,0,0,1,171.06,337.69Z" transform="translate(-90.99 -77.08)"/><path class="cls-1" d="M180.43,324.93a.31.31,0,0,1-.26-.14.32.32,0,0,1,.08-.44,47.35,47.35,0,0,1,39.18-6.66.32.32,0,0,1-.17.61,46.67,46.67,0,0,0-38.65,6.57A.32.32,0,0,1,180.43,324.93Z" transform="translate(-90.99 -77.08)"/><path class="cls-7" d="M217.15,221.32a.33.33,0,0,1-.29-.18.32.32,0,0,1,.14-.42c3.37-1.69,14.94-6.93,28.53-6.93.77,0,1.55,0,2.33.05a.32.32,0,1,1,0,.63c-.77,0-1.54-.05-2.3-.05-13.45,0-24.91,5.19-28.24,6.86A.27.27,0,0,1,217.15,221.32Z" transform="translate(-90.99 -77.08)"/></svg>